<svg xmlns="http://www.w3.org/2000/svg" viewBox="0 0 1200 400"><defs><linearGradient id="bg" x1="0" y1="0" x2="1" y2="1"><stop stop-color="#102a43"/><stop offset="1" stop-color="#071b2d"/></linearGradient></defs><rect width="1200" height="400" rx="34" fill="url(#bg)"/><path d="M0 130c165-64 286 48 437-17s280 45 425 1 244 11 338-33v319H0z" fill="#0b2237"/><path d="M0 256c180-68 300 31 458-18s272 47 415 8 220 11 327-22v176H0z" fill="#091d30"/><text x="72" y="165" fill="#edf4f5" font-family="Inter,Segoe UI,Arial,sans-serif" font-size="58" font-weight="700">Guía de Radiocomunicaciones</text><text x="74" y="214" fill="#9fb3c2" font-family="Inter,Segoe UI,Arial,sans-serif" font-size="24" letter-spacing="2">canales · señales · cobertura</text><rect x="74" y="247" width="150" height="5" rx="3" fill="#3bd3df"/><rect x="244" y="247" width="64" height="5" rx="3" fill="#436579"/><g transform="translate(840 58)"><rect x="72" y="62" width="118" height="206" rx="20" fill="#173a53" stroke="#7ba0b0" stroke-width="8"/><rect x="96" y="96" width="70" height="45" rx="8" fill="#3bd3df"/><rect x="101" y="160" width="60" height="11" rx="5" fill="#7894a2"/><rect x="101" y="184" width="60" height="11" rx="5" fill="#7894a2"/><rect x="101" y="208" width="60" height="11" rx="5" fill="#7894a2"/><path d="M130 62V12" stroke="#edf4f5" stroke-width="10" stroke-linecap="round"/><path d="M55 38c-26 24-26 67 0 91M205 38c26 24 26 67 0 91M34 18c-39 39-39 99 0 138M226 18c39 39 39 99 0 138" fill="none" stroke="#3bd3df" stroke-width="9" stroke-linecap="round"/><rect x="217" y="128" width="88" height="112" rx="16" fill="#edf4f5"/><g fill="none" stroke="#3bd3df" stroke-width="7" stroke-linecap="round" stroke-linejoin="round"><path d="M236 158l9 9 18-22"/><path d="M236 191l9 9 18-22"/></g><rect x="270" y="153" width="22" height="8" rx="4" fill="#7894a2"/><rect x="270" y="186" width="22" height="8" rx="4" fill="#7894a2"/></g></svg>